<svg viewBox="0 0 435 419" fill="none" xmlns="http://www.w3.org/2000/svg"><g opacity=".7"><path d="M302.38 121.222l176.916 105.392v175.133L302.38 301.257V121.222z" fill="#645544"/><path stroke="#F3F0EE" d="M395.523 348.361l69.644-128.002M378.144 339.448l69.644-128.002M361.655 328.753l69.644-128.002M304.614 204.178l31.734-58.326M304.168 167.19l16.4-30.141M304.614 279.044l62.616-115.085M412.903 358.213l64.959-119.391M312.636 300.684l69.644-128.002M328.678 310.037l69.645-128.003M345.167 319.395l69.644-128.002M304.614 241.611l47.069-86.509M431.174 368.937l46.429-85.335"/><path d="M410.891 8.254c-4.178-1.899-6.518-2.226-10.695 0l-111.631 64.17c3.133-1.221 4.889-.982 8.021 0l181.373 104.279V47.023l-67.068-38.77z" fill="#F9B146"/><path d="M285.223 78.44c0-2.004 1.559-4.678 3.788-6.015 2.228-1.337 6.684-.446 8.467.446l180.704 104.055v22.727c-.023-1.857-.683-3.132-6.016-6.907 0 0-157.309-91.355-161.988-93.806-4.679-2.451-8.913-2.451-8.913 2.674s1.07 190.256 1.115 192.736c.045 2.48 2.712 5.558 4.456 6.239 1.744.681 167.781 97.148 168.672 97.371.891.222 1.825-.492 2.228-1.783v22.727S300.597 317.746 296.141 314.181c-4.457-3.565-10.918-12.255-10.918-19.831V78.44z" fill="#CC7E22"/><path d="M301.265 102.505c0-2.228.446-3.832 1.115-4.233.668-.401 1.114-.892 2.228-.892 0 0 .385 192.068.445 195.41.061 3.342 2.563 4.457 4.234 5.571 1.671 1.114 164.438 94.919 165.998 95.601 1.56.682 2.451.878 2.451.878v1.337s-.789 1.954-2.005 2.005c-1.217.052-167.335-96.331-169.564-97.816-2.228-1.486-4.233-3.342-4.233-5.125 0-1.782-.669-190.508-.669-192.736z" fill="#834F13"/><path opacity=".8" d="M477.959 102.951v16.711l-81.774-47.683v-1.114L410 62.844l1.337 1.114 66.622 38.993z" fill="#645544"/><path d="M373.904 63.958c-.839-2.697 0-6.907 0-6.907l15.151-8.913c2.784-.76 4.346-.452 7.13 0l17.38 10.25c.156 1.496.129 2.512 0 4.456l-2.228 1.114L410 62.844l-13.815 8.021v2.006c-.803 1.148-1.596 1.662-3.342 2.45l-18.939-11.363z" fill="#645544"/><path d="M477.959 198.985c-.16-1.881-2.017-3.54-8.467-7.576 0 0-158.645-92.692-161.096-93.583-2.451-.891-3.788-.446-3.788-.446v30.303l173.351 100.268v-28.966z" fill="#F3F0EE"/><ellipse cx="427.058" cy="182.915" rx="5.782" ry="3.793" transform="rotate(51 427.058 182.915)" fill="#645544"/><path d="M317.754 122.813l8.69-5.794c1.044-.323 1.547-.353 2.228 0 5.858 2.742 7.13 8.022 7.13 10.027 0 2.006-.038 1.782-.446 2.228l-8.244 6.016c1.664-8.397.345-11.613-9.358-12.477z" fill="#645544"/><ellipse cx="322.403" cy="129.196" rx="7.799" ry="5.115" transform="rotate(51 322.403 129.196)" fill="#645544"/><path d="M348.503 140.669l8.689-5.793c1.045-.324 1.548-.353 2.229 0 5.857 2.742 7.13 8.022 7.13 10.027 0 2.005-.038 1.782-.446 2.228l-8.244 6.016c1.664-8.398.344-11.613-9.358-12.478z" fill="#645544"/><ellipse cx="353.152" cy="147.053" rx="7.799" ry="5.115" transform="rotate(51 353.152 147.053)" fill="#645544"/><path d="M366.328 150.919l8.69-5.793c1.044-.324 1.547-.354 2.228 0 5.858 2.741 7.13 8.021 7.13 10.026 0 2.006-.038 1.783-.446 2.229l-8.244 6.016c1.664-8.398.345-11.613-9.358-12.478z" fill="#645544"/><ellipse cx="370.977" cy="157.302" rx="7.799" ry="5.115" transform="rotate(51 370.977 157.302)" fill="#645544"/><path d="M384.153 161.614l8.69-5.793c1.045-.324 1.548-.354 2.228 0 5.858 2.741 7.13 8.021 7.13 10.027 0 2.005-.037 1.782-.445 2.228l-8.245 6.016c1.665-8.398.345-11.613-9.358-12.478z" fill="#645544"/><ellipse cx="388.803" cy="167.997" rx="7.799" ry="5.115" transform="rotate(51 388.803 167.997)" fill="#645544"/><path stroke="#F3F0EE" d="M304.633 127.739l75.014 211.281M321.122 137.097l75.013 211.281M338.501 146.901l75.014 211.281M356.772 157.596l75.014 211.281M374.598 167.846l75.013 211.281M391.977 177.65l75.014 211.281M305.079 166.509l57.701 162.52M429.41 199.486l48.905 137.743M410.248 188.345l67.99 191.497M305.079 203.942l41.002 115.486M305.079 241.375l24.303 68.452M305.525 278.808l7.753 21.838"/></g></svg>