<svg viewBox="0 0 136 99" fill="none" xmlns="http://www.w3.org/2000/svg"><g opacity=".7"><ellipse opacity=".2" rx="41.836" ry="6.235" transform="matrix(-1 0 0 1 52.03 92.02)" fill="#645544"/><path d="M26.869 45.897c-5.497-1.715-8.575-2.689-13.549-6.16 0 0-2.68-1.953-5.657-5.784C4.685 30.123-5.803 14.186-14 0v39.737c4.065 5.147 5.97 7.783 9.23 12.395 2.602 4.273 3.938 6.672 5.733 10.967 16.653 1.099 21.31-3.883 25.905-17.202z" fill="#CC7E22"/><path fill-rule="evenodd" clip-rule="evenodd" d="M7.938 84.957l.002.005-.001-.003-.001-.002z" fill="#259CE0"/><path d="M26.795 45.819c1.19-.676 31.465-1.202 31.465-1.202 6.625.676 12.655 7.211 13.697 12.768-.197.156-2.156 2.1-2.358 2.259-1.483 1.166-1.043.826-2.927 2.025-1.884 1.199-58.24 24.04-58.732 23.293l-.002-.006c-.396-.902-.819-1.855-1.254-2.837-3.277-7.388-7.04-18.553-5.52-18.948.454-.118 1.507-.22 2.898-.355 3.936-.382 10.57-1.027 13.925-3.025 3.5-2.084 6.6-9.12 8.02-12.34.423-.96.697-1.58.788-1.632z" fill="#259CE0"/><ellipse rx="1.489" ry="1.502" transform="matrix(-1 0 0 1 54.71 49.353)" fill="#FFEAB3"/><ellipse rx="1.489" ry="1.502" transform="matrix(-1 0 0 1 43.99 50.855)" fill="#FFEAB3"/><ellipse rx="1.489" ry="1.502" transform="matrix(-1 0 0 1 33.42 51.907)" fill="#FFEAB3"/><path fill-rule="evenodd" clip-rule="evenodd" d="M7.937 84.957l.002.005a.026.026 0 01-.002-.005z" fill="#FFEAB3"/><path d="M58.26 44.617c6.936-4.064 12.133-7.437 18.46-6.535 4.093.583 6.94 3.05 8.601 5.108 0 0-6.367 7.662-8.6 10.066-1.196 1.287-2.867 2.634-4.764 4.129-1.043-5.557-7.072-12.092-13.698-12.768z" fill="#FFEAB3"/><path d="M86.994 45.819c.595 1.427-10.273 15.85-20.323 21.559C45.018 78.458 10.393 91.79 10.393 91.79s-.723-2.887-2.454-6.83c.493.749 56.922-22.169 58.732-23.292 1.81-1.124 2.04-1.46 3.522-2.626.202-.159 1.566-1.502 1.764-1.658 1.897-1.495 3.568-2.842 4.764-4.13 2.233-2.403 8.6-10.065 8.6-10.065l.368.45c.602.729.8.97 1.305 2.179zM53.519 44.695c.965 1.174 1.33 1.883 1.712 3.23l-1.712.526c-.376-1.489-.84-2.23-1.787-3.68.698-.25 1.089-.478 1.787-.076zM42.352 44.996c.965 1.173 1.852 3.153 2.233 4.5l-1.712.527c-.376-1.49-1.287-3.578-2.233-5.027.697-.25 1.014-.403 1.712 0zM31.41 45.371c.965 1.174 2.225 4.077 2.606 5.425l-1.713.526c-.375-1.49-1.659-4.35-2.605-5.8.67-.376 1.014-.553 1.712-.15z" fill="#FFEAB3"/><path d="M112.923 23.136L97.886 39.963l1.34 1.502 18.759-16.826-5.062-1.503zM133.618 77.822l-28.884-5.354.596-1.857 27.394 2.308.894 4.903zM134.452 44.92l-26.442 9.231.447 2.338L136 50.284l-1.548-5.363z" fill="#DD281C"/></g></svg>