<svg viewBox="0 0 435 285" fill="none" xmlns="http://www.w3.org/2000/svg"><g opacity=".7"><ellipse opacity=".2" cx="244.074" cy="266.003" rx="121.604" ry="18.002" fill="#645544"/><path d="M317.209 132.834c15.976-4.953 24.924-7.764 39.381-17.785 0 0 7.789-5.639 16.444-16.7C381.689 87.287 412.176 41.273 436 .315V115.05c-11.814 14.859-17.35 22.471-26.831 35.787-7.56 12.337-11.443 19.264-16.661 31.665-48.406 3.171-61.94-11.213-75.299-49.667z" fill="#CC7E22"/><path fill-rule="evenodd" clip-rule="evenodd" d="M372.236 245.611v-.002l-.007.016.005-.009.002-.005z" fill="#259CE0"/><path d="M317.426 132.608c-3.463-1.952-91.46-3.47-91.46-3.47-19.258 1.952-36.784 20.821-39.813 36.864.573.45 6.269 6.064 6.856 6.522 4.31 3.367 3.029 2.386 8.506 5.847 5.478 3.461 169.283 69.413 170.714 67.254l.007-.016.001-.003c1.15-2.602 2.379-5.354 3.645-8.189 9.524-21.33 20.462-53.57 16.045-54.708-1.32-.34-4.383-.636-8.425-1.026-11.442-1.104-30.722-2.964-40.476-8.734-10.171-6.017-19.185-26.331-23.312-35.631-1.229-2.769-2.025-4.561-2.288-4.71z" fill="#259CE0"/><ellipse cx="236.284" cy="142.811" rx="4.328" ry="4.338" fill="#FFEAB3"/><ellipse cx="267.442" cy="147.148" rx="4.328" ry="4.338" fill="#FFEAB3"/><ellipse cx="298.168" cy="150.185" rx="4.328" ry="4.338" fill="#FFEAB3"/><path fill-rule="evenodd" clip-rule="evenodd" d="M372.236 245.611v-.002l-.007.016.005-.009.002-.005z" fill="#FFEAB3"/><path d="M225.966 129.138c-20.163-11.734-35.27-21.472-53.662-18.869-11.894 1.683-20.168 8.808-24.999 14.748 0 0 18.508 22.122 24.999 29.063 3.476 3.716 8.334 7.606 13.849 11.923 3.029-16.044 20.555-34.913 39.813-36.865z" fill="#FFEAB3"/><path d="M142.444 132.608c-1.731 4.121 29.86 45.763 59.071 62.247 62.94 31.99 163.581 70.489 163.581 70.489s2.103-8.337 7.133-19.719c-1.431 2.159-165.453-64.009-170.714-67.254-5.261-3.244-5.928-4.214-10.237-7.582-.588-.458-4.552-4.337-5.125-4.786-5.515-4.317-10.373-8.207-13.849-11.923-6.491-6.941-24.999-29.063-24.999-29.063-.402.495-.754.919-1.069 1.298-1.748 2.106-2.324 2.8-3.792 6.293zM239.746 129.364c-2.805 3.388-3.869 5.435-4.977 9.326l4.977 1.518c1.093-4.299 2.442-6.442 5.193-10.627-2.028-.719-3.165-1.38-5.193-.217zM272.202 130.231c-2.805 3.389-5.383 9.105-6.491 12.996l4.977 1.518c1.092-4.299 3.74-10.328 6.491-14.514-2.028-.718-2.949-1.162-4.977 0zM304.01 131.315c-2.806 3.389-6.466 11.772-7.574 15.663l4.977 1.518c1.093-4.299 4.822-12.561 7.573-16.747-1.947-1.084-2.948-1.596-4.976-.434z" fill="#FFEAB3"/><path d="M67.077 67.117l43.708 48.583-3.895 4.337-54.527-48.583 14.714-4.337zM6.924 225.011l83.955-15.459-1.732-5.362-79.626 6.663-2.597 14.158zM4.5 130.015l76.858 26.65-1.299 6.75L0 145.501l4.5-15.486z" fill="#DD281C"/></g></svg>