<svg viewBox="0 0 311 851" fill="none" xmlns="http://www.w3.org/2000/svg"><g opacity=".7"><g filter="url(#filter0_d)"><path d="M126.655 64.991c1.218-11.051 12.524-21.387 32.682-17.182 16.733 2.964 30.547 15.919 25.753 29.603-4.793 13.684-16.856 24.316-17.974 33.126-1.119 8.811 8.29 22.121 8.042 34.886-.19 9.762-8.478 21.494-17.992 22.567-9.271 1.045-31.351-3.271-40.761-8.664-9.41-5.393-14.554-16.666-9.783-28.47 4.772-11.804 13.16-15.562 20.094-28.906 2.502-13.533-1.279-25.909-.061-36.96z" fill="#F9B146"/></g><path d="M176.065 128.253l-4.956-1.032-1.684-4.492 7.476 1.589c1.353-2.397 2.476-3.586 3.997-4.291 1.521-.705 3.23-.685 4.591.975 1.361 1.661 1.598 3.767.901 7.047-.697 3.279-2.566 5.623-3.689 6.07-1.123.447-3.488.287-4.591-.976-1.103-1.262-1.395-2.854-2.045-4.89zM177.165 108.884l-9.284-1.952 1.923-3.725 8.198 1.742c1.353-2.397 2.476-3.586 3.997-4.291 1.52-.705 3.23-.685 4.59.976 1.361 1.66 1.599 3.767.902 7.046-.697 3.279-2.567 5.624-3.69 6.07-1.123.447-3.488.287-4.591-.975-1.102-1.263-1.394-2.854-2.045-4.891zM113.804 109.966l6.755 1.436-2.801 3.517-4.79-1.018c-1.353 2.397-2.476 3.586-3.997 4.291-1.521.705-3.23.685-4.591-.975-1.361-1.661-1.598-3.767-.901-7.047.697-3.279 2.566-5.623 3.689-6.07 1.123-.447 3.488-.287 4.591.976 1.103 1.262 1.395 2.854 2.045 4.89zM121.401 91.977l6.238 1.326-.319 4.045-6.755-1.436c-1.353 2.397-2.476 3.586-3.997 4.291-1.521.705-3.23.685-4.591-.976-1.361-1.66-1.598-3.767-.901-7.046.697-3.28 2.566-5.624 3.689-6.07 1.123-.447 3.488-.287 4.591.975 1.103 1.263 1.395 2.855 2.045 4.89z" fill="#341E04"/><g filter="url(#filter1_d)"><path d="M-28.43 505.916c2.341-46.691 50.273-83.092 102.725-70.982 53.961 10.533 79.265 65.244 62.986 109.239-16.279 43.995-38.152 48.186-21.629 71.913 16.524 23.726 36.994 50.842 32.688 95.641-4.765 49.584-42.883 98.885-87.703 108.982-44.821 10.096-101.633-4.291-131.361-30.327-29.728-26.037-49.299-76.252-33.662-126.567s41.664-65.151 67.533-82.938c21.086-14.498 6.083-28.271 8.423-74.961z" fill="#F9B146"/></g><circle cx="49.09" cy="565.867" r="38.947" transform="rotate(12 49.09 565.867)" fill="#645544"/><rect x="-20.613" y="673.157" width="93.473" height="16.444" rx="8.222" transform="rotate(12 -20.613 673.157)" fill="#834F13"/><path d="M57.908 432.803c15.548 1.782 23.73 2.832 37.826 9.367l58.855-274.81c-15.938-1.477-23.384-3.147-38.519-8.187l-58.162 273.63z" fill="#834F13"/><path stroke="#F3F0EE" stroke-width="3" d="M131.25 124.104L13.025 680.308M151.293 108.897L29.109 683.725M154.956 129.142L36.731 685.347M143.675 107.282L19.8 681.752"/><path d="M143.263 230.225c-2.164.823-18.87-6.556-22.485-8.644-3.616-2.087-2.71-7.83.865-8.177-5.897-1.476-8.036-9.459-2.904-10.835-5.896-1.476-6.477-10.488-.622-11.445.785-.129 2.045-.242 3.639-.342-3.727-.224-3.914-7.53 2.511-8.641 6.426-1.11 28.285-7.057 30.834-5.817 2.549 1.24 4.879 9.083 1.234 13.727 3.834 5.455 3.738 9.389.663 13.88 1.986 7.413-.541 10.478-6.068 13.849-.071 6.539-5.503 11.622-7.667 12.445z" fill="#CC7E22"/><path d="M81.749 218.875c-2.901-4.058 1.05-23.667 6.208-29.207 5.159-5.539 8.572-7.026 12.921-8.756 4.35-1.73 9.752-6.333 12.678-9.693 2.927-3.36 8.652-13.645 10.949-14.042 2.296-.397 6.053 4.826 4.883 10.329-1.17 5.502-20.69 26.571-20.69 26.571l-6.928 32.593c-9.855-2.225-18.488-5.649-20.021-7.795z" fill="#CC7E22"/><path d="M87.37 190.428c-3.472 6.914-6.74 18.187-5.939 27.937.802 9.75-124.43-23.351-124.43-23.351l9.178-43.176s124.663 31.676 121.19 38.59z" fill="#259CE0"/></g><defs><filter id="filter0_d" x="100.381" y="40.573" width="98.29" height="132.475" filterUnits="userSpaceOnUse" color-interpolation-filters="sRGB"><feFlood flood-opacity="0" result="BackgroundImageFix"/><feColorMatrix in="SourceAlpha" values="0 0 0 0 0 0 0 0 0 0 0 0 0 0 0 0 0 0 127 0"/><feOffset dx="4"/><feColorMatrix values="0 0 0 0 0.788235 0 0 0 0 0.533333 0 0 0 0 0.0901961 0 0 0 1 0"/><feBlend in2="BackgroundImageFix" result="effect1_dropShadow"/><feBlend in="SourceGraphic" in2="effect1_dropShadow" result="shape"/></filter><filter id="filter1_d" x="-134.014" y="407.223" width="365.258" height="442.527" filterUnits="userSpaceOnUse" color-interpolation-filters="sRGB"><feFlood flood-opacity="0" result="BackgroundImageFix"/><feColorMatrix in="SourceAlpha" values="0 0 0 0 0 0 0 0 0 0 0 0 0 0 0 0 0 0 127 0"/><feOffset dx="25" dy="1"/><feColorMatrix values="0 0 0 0 0.788235 0 0 0 0 0.533333 0 0 0 0 0.0901961 0 0 0 1 0"/><feBlend in2="BackgroundImageFix" result="effect1_dropShadow"/><feBlend in="SourceGraphic" in2="effect1_dropShadow" result="shape"/></filter></defs></svg>