<svg viewBox="0 0 226 665" fill="none" xmlns="http://www.w3.org/2000/svg"><g opacity=".7"><g filter="url(#filter0_d)"><path d="M81.98 50.774c.952-8.634 9.785-16.708 25.533-13.423 13.073 2.316 23.865 12.436 20.12 23.127-3.745 10.691-13.169 18.997-14.043 25.88-.873 6.883 6.477 17.282 6.283 27.255-.148 7.626-6.623 16.791-14.056 17.63-7.242.817-24.493-2.556-31.844-6.769-7.352-4.213-11.37-13.02-7.643-22.242 3.728-9.222 10.28-12.157 15.698-22.583 1.954-10.573-1-20.24-.048-28.875z" fill="#F9B146"/></g><path d="M120.582 100.198l-3.872-.807-1.316-3.51 5.841 1.243c1.057-1.873 1.935-2.802 3.123-3.353 1.188-.551 2.523-.535 3.587.762 1.063 1.297 1.248 2.943.704 5.505-.545 2.562-2.005 4.394-2.883 4.743-.877.349-2.725.224-3.586-.763-.862-.986-1.09-2.229-1.598-3.82zM121.442 85.066l-7.254-1.525 1.502-2.91 6.405 1.36c1.057-1.872 1.935-2.801 3.123-3.352 1.188-.55 2.523-.535 3.586.762 1.063 1.297 1.249 2.943.705 5.505-.545 2.562-2.005 4.394-2.883 4.743-.877.349-2.725.224-3.587-.763-.861-.986-1.089-2.23-1.597-3.82zM71.94 85.91l5.278 1.123-2.188 2.748-3.743-.796c-1.057 1.873-1.934 2.802-3.122 3.353-1.188.55-2.524.535-3.587-.762-1.063-1.298-1.248-2.944-.704-5.505.545-2.562 2.005-4.394 2.882-4.743.878-.349 2.726-.224 3.587.762.861.987 1.09 2.23 1.598 3.82zM77.876 71.857l4.873 1.036-.25 3.16-5.277-1.122c-1.056 1.873-1.934 2.802-3.122 3.353-1.188.55-2.524.534-3.587-.763-1.063-1.297-1.248-2.943-.704-5.505.545-2.561 2.005-4.393 2.883-4.742.877-.35 2.725-.224 3.586.762.861.987 1.09 2.23 1.598 3.82z" fill="#341E04"/><g filter="url(#filter1_d)"><path d="M-39.18 395.247c1.83-36.477 39.276-64.916 80.254-55.455 42.158 8.229 61.926 50.972 49.208 85.343-12.718 34.371-29.806 37.646-16.897 56.182 12.909 18.536 28.901 39.72 25.537 74.72-3.723 38.738-33.502 77.254-68.518 85.142-35.017 7.887-79.401-3.353-102.626-23.693-23.225-20.341-38.515-59.572-26.298-98.881 12.216-39.308 32.55-50.899 52.76-64.795 16.473-11.327 4.752-22.086 6.58-58.563z" fill="#F9B146"/></g><circle cx="21.383" cy="442.083" r="30.428" transform="rotate(12 21.383 442.083)" fill="#645544"/><rect x="-33.073" y="525.904" width="73.026" height="12.847" rx="6.424" transform="rotate(12 -33.073 525.904)" fill="#834F13"/><path d="M28.272 338.127c12.147 1.392 18.54 2.213 29.552 7.319l45.98-214.696c-12.452-1.154-18.269-2.459-30.093-6.396L28.27 338.127z" fill="#834F13"/><path stroke="#F3F0EE" stroke-width="2" d="M85.402 96.92L-6.961 531.455M101.061 85.04L5.605 534.125M103.922 100.857L11.559 535.391M95.109 83.778L-1.668 532.582"/><path d="M94.955 179.863c-1.69.644-14.742-5.122-17.566-6.753-2.825-1.63-2.117-6.117.675-6.388-4.606-1.153-6.277-7.39-2.268-8.465-4.606-1.153-5.06-8.193-.486-8.942.613-.1 1.597-.188 2.843-.266-2.912-.176-3.058-5.883 1.962-6.751 5.02-.868 22.098-5.514 24.089-4.545 1.992.969 3.812 7.096.964 10.724 2.996 4.262 2.92 7.335.518 10.844 1.552 5.791-.423 8.186-4.741 10.82-.055 5.108-4.3 9.079-5.99 9.722z" fill="#CC7E22"/><path d="M46.898 170.996c-2.267-3.17.82-18.49 4.85-22.818 4.03-4.328 6.697-5.489 10.095-6.84 3.397-1.352 7.618-4.948 9.904-7.573 2.286-2.625 6.76-10.661 8.553-10.971 1.794-.309 4.73 3.771 3.816 8.07-.914 4.299-16.165 20.759-16.165 20.759l-5.412 25.463c-7.699-1.738-14.444-4.414-15.642-6.09z" fill="#CC7E22"/><path d="M51.289 148.772c-2.712 5.401-5.266 14.208-4.64 21.826.627 7.617-97.21-18.244-97.21-18.244l7.17-33.731S54 143.37 51.288 148.772z" fill="#259CE0"/></g><defs><filter id="filter0_d" x="61.454" y="31.698" width="77.664" height="103.496" filterUnits="userSpaceOnUse" color-interpolation-filters="sRGB"><feFlood flood-opacity="0" result="BackgroundImageFix"/><feColorMatrix in="SourceAlpha" values="0 0 0 0 0 0 0 0 0 0 0 0 0 0 0 0 0 0 127 0"/><feOffset dx="4"/><feColorMatrix values="0 0 0 0 0.788235 0 0 0 0 0.533333 0 0 0 0 0.0901961 0 0 0 1 0"/><feBlend in2="BackgroundImageFix" result="effect1_dropShadow"/><feBlend in="SourceGraphic" in2="effect1_dropShadow" result="shape"/></filter><filter id="filter1_d" x="-121.667" y="318.143" width="285.826" height="344.943" filterUnits="userSpaceOnUse" color-interpolation-filters="sRGB"><feFlood flood-opacity="0" result="BackgroundImageFix"/><feColorMatrix in="SourceAlpha" values="0 0 0 0 0 0 0 0 0 0 0 0 0 0 0 0 0 0 127 0"/><feOffset dx="20"/><feColorMatrix values="0 0 0 0 0.788235 0 0 0 0 0.533333 0 0 0 0 0.0901961 0 0 0 1 0"/><feBlend in2="BackgroundImageFix" result="effect1_dropShadow"/><feBlend in="SourceGraphic" in2="effect1_dropShadow" result="shape"/></filter></defs></svg>