<svg viewBox="0 0 219 150" fill="none" xmlns="http://www.w3.org/2000/svg"><g opacity=".7" fill="#341E04" stroke="#341E04"><rect x="16.154" y="31.432" width="15.655" height="15.655" rx="7.5" transform="rotate(9 16.154 31.432)"/><path d="M29.658 36.447L40.297 5.166c1.302 10.016 6.214 18.18 7.928 21.717 1.713 3.538-1.487 10.53-3.568 15.35 1.998-5.45 3.18-8.59.823-12.374-2.358-3.784-5.08-6.986-7.467-10.277-6.34 15.772-6.212 21.01-8.3 23.695l-.055-6.83z" stroke-linejoin="round"/><rect x="140.63" y="81.297" width="15.655" height="15.655" rx="7.5" transform="rotate(172 140.63 81.297)"/><path d="M124.199 73.934c-1.211 3.178.443 8.15-1.009 25.085l-1.262 21.676 3.654-16.062.667-24.184-2.05-6.515z" stroke-linejoin="round"/><path d="M122.132 121.061l1.018-14.561c3.025-2.673 6.353-5.183 9.461-8.343 3.082-3.133 2.678-6.43 1.983-12.102l-.017-.14c.925 5.163 2.441 12.694.008 15.757-2.434 3.064-8.971 9.919-12.453 19.389z" stroke-linejoin="round"/><rect x="53.227" y="61.135" width="15.655" height="15.655" rx="7.5" transform="rotate(9 53.227 61.135)"/><rect x="80.715" y="78.802" width="15.655" height="15.655" rx="7.5" transform="rotate(9 80.715 78.802)"/><path d="M70.605 28.768l-5.57 35.174 1.874 9.172 5.228-33.009C75.669 42.33 93.666 53.45 96.853 55.67l-4.114 25.975s2.442 5.598 2.27 6.68l6.246-39.435c-6.52-4.36-24.585-16.387-30.65-20.122z" stroke-linejoin="round"/><rect x="206.79" y="96.634" width="15.655" height="15.655" rx="7.5" transform="rotate(-170 206.79 96.634)"/><rect x="179.614" y="78.49" width="15.655" height="15.655" rx="7.5" transform="rotate(-170 179.614 78.49)"/><path d="M188.849 128.693l6.184-35.071-1.715-9.204-5.803 32.913c-3.492-2.286-21.292-13.719-24.44-15.994l4.566-25.9s-2.343-5.639-2.153-6.718l-6.933 39.32c6.443 4.474 24.295 16.814 30.294 20.654z" stroke-linejoin="round"/></g></svg>