<svg viewBox="0 0 225 161" fill="none" xmlns="http://www.w3.org/2000/svg"><g opacity=".7" fill="#341E04" stroke="#341E04"><rect x="20.113" y="101.253" width="17.098" height="17.098" rx="7.5" transform="rotate(-29 20.113 101.253)"/><path d="M35.09 96.53L23.272 62.628c7.816 7.705 17.484 11.41 21.317 13.292 3.834 1.883 5.772 10.01 7.214 15.53-1.934-6.003-3.023-9.484-7.573-11.146-4.551-1.662-9.023-2.583-13.269-3.805 5.122 17.747 8.736 22.146 8.745 25.842L35.09 96.53z" stroke-linejoin="round"/><rect x="155.551" y="44.71" width="17.098" height="17.098" rx="7.5" transform="rotate(145 155.551 44.71)"/><path d="M135.95 45.675c.395 3.675 4.449 7.672 11.398 24.786l9.471 21.609-4.386-17.354-11.285-23.744-5.198-5.297z" stroke-linejoin="round"/><path d="M157.197 92.323l-6.198-14.6c1.611-4.08 3.594-8.152 5.045-12.744 1.438-4.554-.579-7.547-4.051-12.696l-.086-.127c3.444 4.542 8.626 11.086 7.781 15.252-.845 4.167-3.791 14.03-2.491 24.915z" stroke-linejoin="round"/><rect x="70.288" y="94.563" width="17.098" height="17.098" rx="7.5" transform="rotate(-8 70.288 94.563)"/><rect x="104.465" y="104.189" width="17.098" height="17.098" rx="7.5" transform="rotate(-8 104.465 104.189)"/><path d="M78.113 55.446l5.385 38.32 4.863 8.935-5.054-35.962c4.376 1.19 26.61 7.028 30.628 8.322l3.977 28.299s4.315 5.041 4.481 6.22l-6.038-42.962c-8.161-2.46-30.754-9.219-38.242-11.172z" stroke-linejoin="round"/></g></svg>